# xmcd
#
# Track frame offsets:
#	150
#	10063
#	31194
#	48948
#	68024
#	82018
#	97467
#	112331
#	131399
#
# Disc length: 2111 seconds
#
# Revision: 0
# Processed by: cddbd v1.5.1PL0 Copyright (c) Steve Scherf et al.
# Submitted via: dBpowerAMP V4.0
#
DISCID=75083d09
DTITLE=Tim Rogers and the Temperance Union - Ghost Songs
DYEAR=2005
DGENRE=Folk Rolk
TTITLE0=Dumb
TTITLE1=Wild One
TTITLE2=Obviously
TTITLE3=Ghost Songs
TTITLE4=Broken Stuff
TTITLE5=Ridin' Between My Place and Ours
TTITLE6=Social Pages
TTITLE7=Paperboy
TTITLE8=Tonight
EXTD=Album from Tim Rogers of You Am I fame
EXTT0=
EXTT1=
EXTT2=
EXTT3=
EXTT4=
EXTT5=
EXTT6=
EXTT7=
EXTT8=
PLAYORDER=
